<svg width="18" height="12" viewBox="0 0 18 12" fill="none" xmlns="http://www.w3.org/2000/svg">
<path d="M0 12H18V0H0V12Z" fill="#FC4D59"/>
<path d="M4.38545 2.86768L5.07607 4.99268H7.31045L5.5042 6.3083L6.19482 8.4333L4.38545 7.1208L2.57607 8.4333L3.26982 6.3083L1.46045 4.99268H3.69482L4.38545 2.86768Z" fill="#FFDA44"/>
<path d="M9.48643 10.3894L8.9583 9.73936L8.17705 10.0425L8.63018 9.33936L8.10205 8.68623L8.91143 8.90186L9.36768 8.19873L9.41143 9.03623L10.2239 9.25186L9.43955 9.55186L9.48643 10.3894Z" fill="#FFDA44"/>
<path d="M10.5345 8.48262L10.7845 7.68262L10.1001 7.19824L10.9376 7.18574L11.1845 6.38574L11.4563 7.17949L12.2938 7.17012L11.622 7.67012L11.8907 8.46387L11.2063 7.97949L10.5345 8.48262Z" fill="#FFDA44"/>
<path d="M11.9558 3.87051L11.587 4.62363L12.187 5.20801L11.3589 5.08926L10.9901 5.83926L10.8464 5.01426L10.0151 4.89551L10.7589 4.50488L10.6151 3.67676L11.2151 4.26113L11.9558 3.87051Z" fill="#FFDA44"/>
<path d="M9.50791 1.58936L9.44541 2.42373L10.2235 2.73936L9.40791 2.93936L9.34854 3.77686L8.90791 3.06436L8.09229 3.26436L8.63291 2.62373L8.18916 1.91436L8.96729 2.22998L9.50791 1.58936Z" fill="#FFDA44"/>
</svg>
