<svg width="169" height="40" viewBox="0 0 169 40" fill="none" xmlns="http://www.w3.org/2000/svg">
<path d="M129.617 22.2637C129.507 23.7936 128.94 24.998 127.918 25.877C126.902 26.7559 125.561 27.1953 123.895 27.1953C122.072 27.1953 120.636 26.5833 119.588 25.3594C118.546 24.1289 118.025 22.4427 118.025 20.3008V19.4316C118.025 18.0645 118.266 16.86 118.748 15.8184C119.23 14.7767 119.917 13.9792 120.809 13.4258C121.707 12.8659 122.749 12.5859 123.934 12.5859C125.574 12.5859 126.896 13.0254 127.898 13.9043C128.901 14.7832 129.48 16.0169 129.637 17.6055H126.707C126.635 16.6875 126.378 16.0234 125.936 15.6133C125.499 15.1966 124.832 14.9883 123.934 14.9883C122.957 14.9883 122.225 15.3398 121.736 16.043C121.255 16.7396 121.007 17.8236 120.994 19.2949V20.3691C120.994 21.9056 121.225 23.0286 121.688 23.7383C122.156 24.4479 122.892 24.8027 123.895 24.8027C124.799 24.8027 125.473 24.5977 125.916 24.1875C126.365 23.7708 126.622 23.1296 126.688 22.2637H129.617Z" fill="#FF7600"/>
<path d="M139.568 24.0703H134.432L133.455 27H130.34L135.633 12.7812H138.348L143.67 27H140.555L139.568 24.0703ZM135.223 21.6973H138.777L136.99 16.375L135.223 21.6973Z" fill="#FF7600"/>
<path d="M152.371 23.2695C152.371 22.7161 152.176 22.293 151.785 22C151.395 21.7005 150.691 21.388 149.676 21.0625C148.66 20.7305 147.856 20.4049 147.264 20.0859C145.649 19.2135 144.842 18.0384 144.842 16.5605C144.842 15.7923 145.057 15.1087 145.486 14.5098C145.923 13.9043 146.544 13.4323 147.352 13.0938C148.165 12.7552 149.077 12.5859 150.086 12.5859C151.102 12.5859 152.007 12.7715 152.801 13.1426C153.595 13.5072 154.21 14.0247 154.646 14.6953C155.089 15.3659 155.311 16.1276 155.311 16.9805H152.381C152.381 16.3294 152.176 15.8249 151.766 15.4668C151.355 15.1022 150.779 14.9199 150.037 14.9199C149.321 14.9199 148.764 15.0729 148.367 15.3789C147.97 15.6784 147.771 16.0755 147.771 16.5703C147.771 17.0326 148.003 17.4199 148.465 17.7324C148.934 18.0449 149.62 18.3379 150.525 18.6113C152.192 19.1126 153.406 19.7344 154.168 20.4766C154.93 21.2188 155.311 22.1432 155.311 23.25C155.311 24.4805 154.845 25.4473 153.914 26.1504C152.983 26.847 151.73 27.1953 150.154 27.1953C149.061 27.1953 148.064 26.9967 147.166 26.5996C146.268 26.196 145.581 25.6458 145.105 24.9492C144.637 24.2526 144.402 23.4453 144.402 22.5273H147.342C147.342 24.0964 148.279 24.8809 150.154 24.8809C150.851 24.8809 151.395 24.7409 151.785 24.4609C152.176 24.1745 152.371 23.7773 152.371 23.2695Z" fill="#FF7600"/>
<path d="M168.875 27H165.945V20.9062H160.232V27H157.303V12.7812H160.232V18.543H165.945V12.7812H168.875V27Z" fill="#FF7600"/>
<path d="M59.9688 23.2695C59.9688 22.7161 59.7734 22.293 59.3828 22C58.9922 21.7005 58.2891 21.388 57.2734 21.0625C56.2578 20.7305 55.4538 20.4049 54.8613 20.0859C53.2467 19.2135 52.4395 18.0384 52.4395 16.5605C52.4395 15.7923 52.6543 15.1087 53.084 14.5098C53.5202 13.9043 54.1419 13.4323 54.9492 13.0938C55.763 12.7552 56.6745 12.5859 57.6836 12.5859C58.6992 12.5859 59.6042 12.7715 60.3984 13.1426C61.1927 13.5072 61.8079 14.0247 62.2441 14.6953C62.6868 15.3659 62.9082 16.1276 62.9082 16.9805H59.9785C59.9785 16.3294 59.7734 15.8249 59.3633 15.4668C58.9531 15.1022 58.377 14.9199 57.6348 14.9199C56.9186 14.9199 56.362 15.0729 55.9648 15.3789C55.5677 15.6784 55.3691 16.0755 55.3691 16.5703C55.3691 17.0326 55.6003 17.4199 56.0625 17.7324C56.5312 18.0449 57.2181 18.3379 58.123 18.6113C59.7897 19.1126 61.0039 19.7344 61.7656 20.4766C62.5273 21.2188 62.9082 22.1432 62.9082 23.25C62.9082 24.4805 62.4427 25.4473 61.5117 26.1504C60.5807 26.847 59.3275 27.1953 57.752 27.1953C56.6582 27.1953 55.6621 26.9967 54.7637 26.5996C53.8652 26.196 53.1784 25.6458 52.7031 24.9492C52.2344 24.2526 52 23.4453 52 22.5273H54.9395C54.9395 24.0964 55.877 24.8809 57.752 24.8809C58.4486 24.8809 58.9922 24.7409 59.3828 24.4609C59.7734 24.1745 59.9688 23.7773 59.9688 23.2695Z" fill="black"/>
<path d="M76.4727 27H73.543V20.9062H67.8301V27H64.9004V12.7812H67.8301V18.543H73.543V12.7812H76.4727V27Z" fill="black"/>
<path d="M82.1562 27H79.2266V12.7812H82.1562V27Z" fill="black"/>
<path d="M96.4434 27H93.5137L87.8105 17.6445V27H84.8809V12.7812H87.8105L93.5234 22.1562V12.7812H96.4434V27Z" fill="black"/>
<path d="M107.205 24.0703H102.068L101.092 27H97.9766L103.27 12.7812H105.984L111.307 27H108.191L107.205 24.0703ZM102.859 21.6973H106.414L104.627 16.375L102.859 21.6973Z" fill="black"/>
<path d="M112.596 25.6133C112.596 25.1641 112.745 24.7995 113.045 24.5195C113.351 24.2396 113.732 24.0996 114.188 24.0996C114.65 24.0996 115.031 24.2396 115.33 24.5195C115.636 24.7995 115.789 25.1641 115.789 25.6133C115.789 26.056 115.639 26.4173 115.34 26.6973C115.04 26.9707 114.656 27.1074 114.188 27.1074C113.725 27.1074 113.344 26.9707 113.045 26.6973C112.745 26.4173 112.596 26.056 112.596 25.6133Z" fill="black"/>
<path d="M37.3314 19.8774C37.2861 9.31135 31.4734 0.593982 24.0974 0.03L24.0968 0.029375C23.8441 0.01 23.5895 0 23.3334 0H14.0001C10.5588 0 7.40612 1.78531 4.96609 4.73797L5.17141 4.68664L9.81671 3.35867C10.0047 3.30602 10.2067 3.33664 10.3694 3.44531L12 4.53133L13.6301 3.44531C13.8288 3.31195 14.0841 3.29664 14.2981 3.40328L16.6214 4.56461C16.3514 4.91594 16.0901 5.28125 15.8401 5.66531L14.0474 4.7693L12.3695 5.88794C12.1455 6.03729 11.8541 6.03729 11.6302 5.88794L9.88682 4.72531L5.5168 5.974L3.73406 6.42C3.49406 6.79 3.26476 7.17335 3.04476 7.56865L3.75547 8.15L5.33281 9.19865L6.96353 8.11206C7.18753 7.96206 7.47882 7.96206 7.70282 8.11206L9.33353 9.19806L10.9635 8.11206C11.1622 7.97865 11.4175 7.96335 11.6315 8.07L13.9888 9.24865C13.8235 9.65735 13.6681 10.0779 13.5215 10.506L11.3808 9.436L9.70271 10.5547C9.47877 10.704 9.18741 10.704 8.96335 10.5547L7.33335 9.46806L5.70274 10.5547C5.47875 10.704 5.18742 10.704 4.96336 10.5547L2.96336 9.22135L2.41867 8.776C1.47602 10.754 0.778671 12.9866 0.38 15.384L0.91 14.8593L2.85602 12.8666C2.9807 12.74 3.15133 12.6673 3.32938 12.6666C3.50008 12.6719 3.67867 12.7359 3.80469 12.8619L5.33336 14.3899L6.86206 12.8619C7.12206 12.6012 7.54406 12.6012 7.80471 12.8619L9.33335 14.3899L10.8621 12.8619C11.1221 12.6012 11.5441 12.6012 11.8047 12.8619L12.6454 13.7026C12.5388 14.21 12.4427 14.724 12.3614 15.2479C12.3034 15.2173 12.2441 15.1866 12.1954 15.1379L11.3334 14.2759L9.80477 15.8047C9.54406 16.0647 9.12212 16.0647 8.86212 15.8047L7.33341 14.276L5.80477 15.8047C5.54407 16.0647 5.12211 16.0647 4.86211 15.8047L3.33875 14.2814L1.85609 15.7993L0.110781 17.5279C0.0914847 17.7479 0.0741406 17.9686 0.0601565 18.1914L1.00945 18.7614L3.20148 19.8553L4.86211 18.1953C5.12211 17.9346 5.54414 17.9346 5.80477 18.1953L7.33341 19.7233L8.86212 18.1953C9.07812 17.9793 9.41412 17.9379 9.67612 18.0946L12.0074 19.4933C12.0048 19.6619 12.0001 19.8299 12.0001 19.9999C12.0001 20.3539 12.0067 20.7052 12.0181 21.0546L9.436 19.5053L7.80471 21.1379C7.544 21.3979 7.12206 21.3979 6.86206 21.1379L5.33336 19.6093L3.80469 21.1379C3.60203 21.3406 3.29266 21.3919 3.03469 21.2626L0.368047 19.9293L0.00468761 19.7114C0.00398448 19.8079 0 19.9034 0 20C0 22.3166 0.28 24.5414 0.79 26.6126L2.77867 23.63C2.88938 23.464 3.06867 23.356 3.26734 23.336C3.46734 23.3174 3.66336 23.3874 3.80469 23.5286L5.33336 25.0566L6.86206 23.5286C7.12206 23.2679 7.54406 23.2679 7.80471 23.5286L9.33335 25.0566L10.8621 23.5286C11.1221 23.2679 11.5441 23.2679 11.8047 23.5286L12.2514 23.9747C12.3379 24.6574 12.4486 25.3267 12.5786 25.9826C12.4386 25.964 12.3026 25.9119 12.1953 25.8047L11.3333 24.9426L9.80459 26.4714C9.54388 26.7314 9.12194 26.7314 8.86194 26.4714L7.33329 24.9426L5.80461 26.4714C5.54391 26.7314 5.12195 26.7314 4.86195 26.4714L3.43664 25.046L1.26742 28.3C1.54078 29.152 1.85476 29.972 2.20609 30.7547L2.89945 30.1607L4.19547 28.862C4.45547 28.6014 4.8775 28.6014 5.13812 28.862L6.66682 30.39L8.19547 28.862C8.45547 28.6014 8.87753 28.6014 9.13812 28.862L10.5628 30.2867L11.4455 28.9634C11.6315 28.6841 11.9975 28.5867 12.2981 28.7367L13.4541 29.3147C13.6655 29.9494 13.9002 30.562 14.1521 31.1547L12.2281 30.1926L11.2215 31.7026C11.1108 31.8686 10.9308 31.9766 10.7322 31.9966C10.5302 32.014 10.3362 31.9453 10.1955 31.8046L8.66688 30.2759L7.13812 31.8047C6.87741 32.0647 6.45547 32.0647 6.19547 31.8047L4.66679 30.276L3.80476 31.1381L2.80476 31.9954C3.56875 33.4467 4.46945 34.7421 5.47609 35.8501L6.33141 35.4221L8.29671 34.1121C8.52071 33.9621 8.81206 33.9621 9.036 34.1121L10.6667 35.1981L12.2967 34.1121C12.5207 33.9621 12.8121 33.9621 13.036 34.1121L14.6667 35.1981L15.8688 34.3974C16.1167 34.7761 16.3767 35.1368 16.6441 35.4827L15.0361 36.5547C14.8121 36.704 14.5208 36.704 14.2967 36.5547L12.6667 35.4681L11.0361 36.5547C10.8121 36.704 10.5208 36.704 10.2967 36.5547L8.66671 35.4681L7.03612 36.5547C7.01341 36.57 6.98947 36.584 6.96477 36.596L6.46741 36.8447C8.64406 38.8379 11.2281 40 14.0001 40H23.3334C23.5634 40 23.7974 39.9907 24.0341 39.9726H24.0348C24.0515 39.9726 24.0688 39.9726 24.0855 39.9714C24.4135 39.946 24.7609 39.8979 25.1409 39.828C31.0548 38.7427 35.8802 32.4033 37.0609 23.944C37.2295 22.6533 37.3209 21.3279 37.3322 20L37.3314 19.8774ZM35.7401 23.7647C34.6214 31.774 30.1034 37.7234 24.6354 38.5521C24.4314 38.5834 24.2261 38.6186 24.0261 38.636C24.0121 38.6347 23.9988 38.6321 23.9848 38.6307C23.7901 38.6114 23.5968 38.5841 23.4048 38.5486C23.3374 38.536 23.2714 38.52 23.2041 38.506C23.0634 38.476 22.9234 38.4434 22.7848 38.4053C22.7115 38.3846 22.6382 38.3633 22.5655 38.3406C22.4309 38.2986 22.2969 38.2533 22.1635 38.2033C22.0955 38.1786 22.0269 38.154 21.9595 38.1266C21.8062 38.0646 21.6548 37.9973 21.5042 37.9253C21.4609 37.9046 21.4162 37.886 21.3729 37.8647C21.1762 37.7667 20.9809 37.66 20.7889 37.5453C20.7655 37.5314 20.7436 37.5153 20.7202 37.5014C20.5529 37.3986 20.3876 37.2906 20.2242 37.176C20.1755 37.142 20.1269 37.1053 20.0789 37.07C19.9389 36.9679 19.8002 36.862 19.6636 36.7514C19.6156 36.7126 19.5676 36.6734 19.5202 36.6334C19.3755 36.512 19.2329 36.3854 19.0922 36.2541C19.0589 36.2234 19.0256 36.1934 18.9922 36.162C18.4543 35.6486 17.9449 35.0654 17.4683 34.4186C17.4522 34.3966 17.4362 34.374 17.4196 34.3521C17.2749 34.1527 17.1322 33.9481 16.9936 33.7374C16.9796 33.716 16.9662 33.6953 16.9522 33.6747C16.3383 32.7334 15.7876 31.6821 15.3123 30.5394C15.2809 30.4634 15.2496 30.3881 15.2189 30.3114C15.0702 29.9434 14.9296 29.5661 14.7976 29.1808C14.7962 29.1781 14.7955 29.1755 14.7949 29.1728C14.6629 28.7888 14.5396 28.3968 14.4242 27.9968C14.4229 27.9934 14.4222 27.9902 14.4209 27.9868C14.3088 27.5974 14.2055 27.1995 14.1095 26.7955C14.1009 26.7595 14.0929 26.7221 14.0842 26.6862C13.9942 26.2995 13.9109 25.9069 13.8362 25.5082C13.8336 25.4929 13.8302 25.4782 13.8276 25.4629C13.7536 25.0642 13.6889 24.6582 13.6309 24.2489C13.6202 24.1762 13.6109 24.1036 13.6016 24.0309C13.5496 23.6429 13.5036 23.2516 13.4664 22.8549C13.4643 22.8322 13.4616 22.8096 13.4597 22.7862C13.4224 22.3796 13.3957 21.9676 13.375 21.5522C13.3703 21.4562 13.3664 21.3596 13.3624 21.2629C13.345 20.845 13.3336 20.425 13.3336 20.0003C13.3336 19.6903 13.3384 19.3816 13.3471 19.0756C13.3504 18.9776 13.3564 18.8816 13.3604 18.7843C13.3684 18.5764 13.3757 18.3683 13.3877 18.1616C13.3957 18.0329 13.4071 17.9064 13.4164 17.7783C13.4291 17.6062 13.4398 17.4329 13.4551 17.2616C13.4691 17.1083 13.4871 16.9569 13.5031 16.8043C13.5177 16.6609 13.531 16.5164 13.5477 16.3743C13.5657 16.2243 13.5877 16.0769 13.6084 15.9276C13.6276 15.7856 13.645 15.6424 13.6657 15.501C13.6877 15.3564 13.7136 15.2136 13.7377 15.0703C13.7611 14.9283 13.7831 14.7843 13.8084 14.6436C13.835 14.4976 13.8657 14.3544 13.8944 14.2097C13.921 14.0744 13.9464 13.9376 13.9751 13.8036C14.0071 13.6524 14.0431 13.505 14.0777 13.3557C14.1071 13.231 14.1338 13.1044 14.1644 12.981C14.2017 12.829 14.2431 12.6797 14.2831 12.5297C14.3144 12.4124 14.3438 12.2931 14.3764 12.1771C14.4184 12.0284 14.4638 11.8831 14.5077 11.7371C14.5424 11.6224 14.5751 11.5064 14.6111 11.3931C14.6564 11.2491 14.7058 11.1091 14.7531 10.9671C14.7911 10.855 14.8271 10.7404 14.8665 10.6297C14.9191 10.4804 14.9758 10.3357 15.0305 10.189C15.0684 10.0897 15.1038 9.98829 15.1425 9.89029C15.2031 9.73635 15.2672 9.58635 15.3298 9.43565C15.3665 9.34829 15.4012 9.259 15.4385 9.17294C15.5032 9.02429 15.5712 8.88029 15.6379 8.735C15.6772 8.65029 15.7145 8.56294 15.7552 8.479C15.8226 8.33694 15.8939 8.19971 15.9639 8.061C16.0066 7.97765 16.0466 7.89235 16.0899 7.81041C16.1619 7.67377 16.2366 7.541 16.3112 7.40771C16.3552 7.32841 16.3979 7.24706 16.4433 7.16841C16.5179 7.03912 16.5953 6.91376 16.6726 6.78782C16.7199 6.70982 16.7659 6.62982 16.8139 6.55382C16.8926 6.42982 16.9739 6.31047 17.0546 6.18982C17.1039 6.11588 17.1519 6.04053 17.2019 5.96782C17.2853 5.84781 17.3712 5.7325 17.4566 5.61648C17.5066 5.54852 17.5553 5.47852 17.6059 5.4118C17.6933 5.29711 17.7833 5.18711 17.8733 5.07648C17.9239 5.01312 17.974 4.94781 18.0253 4.88648C18.1174 4.77719 18.2114 4.67312 18.3053 4.56781C18.3574 4.50984 18.4079 4.44914 18.4606 4.3925C18.5546 4.29117 18.6512 4.19453 18.7479 4.09719C18.8019 4.0425 18.8553 3.98453 18.9106 3.93117C19.0066 3.83781 19.1053 3.74984 19.2033 3.66047C19.2606 3.60844 19.3166 3.55445 19.374 3.50383C19.474 3.41719 19.576 3.33586 19.6774 3.25383C19.7353 3.20648 19.7921 3.15719 19.8507 3.11179C19.9541 3.03179 20.06 2.95781 20.1654 2.8825C20.2234 2.84047 20.2814 2.79586 20.3401 2.75586C20.4441 2.68453 20.5508 2.61984 20.6567 2.55383C20.7188 2.51516 20.7801 2.47312 20.842 2.43648C20.9481 2.37383 21.056 2.31719 21.1634 2.25984C21.2274 2.22516 21.2907 2.18852 21.3547 2.15586C21.4634 2.10117 21.574 2.05321 21.6841 2.00321C21.7488 1.97391 21.8134 1.94188 21.8788 1.91453C21.9888 1.86852 22.1008 1.82852 22.2121 1.78789C22.2788 1.76321 22.3455 1.73586 22.4128 1.71321C22.5235 1.67586 22.6355 1.64586 22.7475 1.61391C22.8175 1.59391 22.8868 1.57125 22.9568 1.55328C23.0675 1.52531 23.1802 1.50461 23.2915 1.48195C23.3641 1.46664 23.4368 1.44929 23.5095 1.43664C23.6208 1.41734 23.7334 1.40531 23.8455 1.39133C23.9162 1.38266 23.9855 1.37133 24.0562 1.36531C30.7162 1.92 35.9569 10.0366 35.9988 19.8693L35.9995 19.9946C35.9881 21.2634 35.9008 22.5334 35.7401 23.7647Z" fill="#333333"/>
<path d="M18.4204 11.8727C18.3984 11.8513 18.3784 11.828 18.3591 11.8034L18.1184 11.4894C17.2037 13.8754 16.6664 16.7987 16.6664 19.9994C16.6664 23.1827 17.1977 26.0927 18.103 28.4714L18.397 28.1507C17.6953 26.0546 17.0703 23.5354 17.0703 19.9994C17.0705 16.464 17.6563 13.6718 18.4204 11.8727Z" fill="#333333"/>
<path d="M24.6665 5.33289C22.2844 5.33289 20.1838 7.16023 18.7305 10.0949L19.3905 10.9576C20.9771 12.5576 21.9998 16.0969 21.9998 19.9996C21.9998 23.9303 20.9624 27.4923 19.3564 29.0756L18.6838 29.8103C20.1384 32.8003 22.2591 34.6663 24.6664 34.6663C29.1524 34.6663 32.6664 28.2243 32.6664 19.9997C32.6664 11.7751 29.1525 5.33289 24.6665 5.33289Z" fill="#333333"/>
<path fill-rule="evenodd" clip-rule="evenodd" d="M38.7432 6.20821C38.8805 6.10033 38.9043 5.90156 38.7963 5.76431L35.1973 1.18667C35.0893 1.04942 34.8906 1.02563 34.7533 1.13354L27.9954 6.44686C27.9043 6.5185 27.8596 6.63427 27.8792 6.7485L28.2605 10.1523C28.2785 10.2578 28.3487 10.3471 28.447 10.3894L31.6647 11.5633C31.7711 11.6092 31.8942 11.5932 31.9853 11.5216L38.7432 6.20821ZM31.0949 9.18133C31.5953 9.0265 31.8755 8.49539 31.7207 7.99497C31.5659 7.49462 31.0347 7.21444 30.5344 7.36921C30.034 7.52403 29.7538 8.05515 29.9086 8.55556C30.0634 9.05591 30.5945 9.33609 31.0949 9.18133Z" fill="#FF3501"/>
</svg>
