<svg width="190" height="50" viewBox="0 0 190 50" fill="none" xmlns="http://www.w3.org/2000/svg">
<rect width="190" height="50" fill="transparent"/>
<path d="M131.239 45.4741C130.689 45.6985 130.143 45.9042 129.601 46.0912C129.066 46.2782 128.509 46.439 127.929 46.5736C127.348 46.7083 126.737 46.813 126.096 46.8878C125.454 46.9626 124.756 47 124 47C123.068 47 122.171 46.9252 121.308 46.7756C120.453 46.626 119.655 46.4016 118.914 46.1024C118.173 45.8032 117.501 45.4329 116.898 44.9916C116.295 44.5428 115.775 44.0229 115.34 43.432C114.913 42.841 114.58 42.1753 114.344 41.4348C114.115 40.6942 114 39.8827 114 39C114 38.1173 114.115 37.3058 114.344 36.5652C114.58 35.8247 114.913 35.159 115.34 34.568C115.775 33.9771 116.295 33.461 116.898 33.0196C117.501 32.5708 118.173 32.1968 118.914 31.8976C119.655 31.5984 120.453 31.374 121.308 31.2244C122.163 31.0748 123.06 31 124 31C124.756 31 125.454 31.0374 126.096 31.1122C126.737 31.187 127.348 31.2917 127.929 31.4264C128.509 31.561 129.066 31.7218 129.601 31.9088C130.143 32.0884 130.689 32.2903 131.239 32.5147V34.1978C130.804 33.9285 130.338 33.6741 129.841 33.4348C129.345 33.1954 128.807 32.986 128.226 32.8065C127.654 32.6269 127.039 32.4848 126.382 32.3801C125.725 32.2754 125.023 32.223 124.275 32.223C122.763 32.223 121.453 32.3838 120.346 32.7055C119.238 33.0271 118.322 33.4834 117.597 34.0743C116.879 34.6578 116.344 35.3684 115.993 36.2062C115.649 37.0365 115.478 37.9677 115.478 39C115.478 40.0323 115.649 40.9635 115.993 41.7938C116.344 42.6241 116.879 43.3347 117.597 43.9257C118.322 44.5091 119.238 44.9617 120.346 45.2833C121.453 45.5975 122.763 45.7546 124.275 45.7546C125.023 45.7546 125.729 45.7022 126.394 45.5975C127.066 45.4928 127.692 45.3506 128.272 45.1711C128.86 44.9916 129.399 44.7859 129.887 44.554C130.384 44.3146 130.834 44.064 131.239 43.8022V45.4741Z" fill="#333333"/>
<path d="M149.898 46.6971L147.733 42.6353H137.046L134.881 46.6971H133.312L141.548 31.2805H143.232L151.467 46.6971H149.898ZM142.395 32.6381L137.745 41.345H147.035L142.395 32.6381Z" fill="#333333"/>
<path d="M167.286 33.5582C166.988 33.4161 166.644 33.2665 166.255 33.1094C165.866 32.9448 165.419 32.799 164.915 32.6718C164.418 32.5446 163.857 32.4399 163.231 32.3576C162.605 32.2679 161.91 32.223 161.146 32.223C160.222 32.223 159.398 32.2754 158.672 32.3801C157.954 32.4848 157.343 32.6494 156.839 32.8738C156.343 33.0907 155.961 33.3675 155.694 33.7041C155.434 34.0407 155.305 34.4409 155.305 34.9046C155.305 35.2936 155.427 35.6339 155.671 35.9257C155.923 36.2174 156.259 36.4755 156.679 36.6999C157.107 36.9243 157.603 37.13 158.168 37.317C158.741 37.4965 159.344 37.6685 159.978 37.8331C160.619 37.9902 161.276 38.151 161.948 38.3156C162.628 38.4801 163.285 38.6597 163.918 38.8541C164.56 39.0411 165.163 39.2543 165.728 39.4937C166.301 39.7256 166.797 39.9986 167.217 40.3128C167.645 40.6269 167.981 40.986 168.225 41.3899C168.477 41.7938 168.603 42.2613 168.603 42.7924C168.603 43.3684 168.492 43.8733 168.271 44.3072C168.05 44.7335 167.748 45.1038 167.366 45.418C166.992 45.7246 166.549 45.9827 166.037 46.1921C165.533 46.3941 164.991 46.5549 164.411 46.6746C163.838 46.7943 163.243 46.8766 162.624 46.9215C162.013 46.9738 161.41 47 160.814 47C159.447 47 158.206 46.9028 157.091 46.7083C155.984 46.5138 154.927 46.2482 153.919 45.9116V44.195C154.957 44.8008 156.053 45.216 157.206 45.4404C158.367 45.6648 159.585 45.777 160.86 45.777C161.761 45.777 162.593 45.7246 163.357 45.6199C164.121 45.5152 164.781 45.3506 165.339 45.1262C165.896 44.8943 166.328 44.5951 166.633 44.2286C166.946 43.8621 167.103 43.4133 167.103 42.8822C167.103 42.4558 166.977 42.0818 166.725 41.7602C166.48 41.4385 166.144 41.158 165.717 40.9187C165.297 40.6718 164.8 40.4549 164.228 40.2679C163.663 40.0809 163.063 39.9088 162.429 39.7518C161.795 39.5872 161.139 39.4301 160.459 39.2805C159.787 39.1234 159.134 38.9551 158.5 38.7756C157.867 38.5961 157.263 38.3941 156.691 38.1697C156.125 37.9453 155.629 37.6835 155.202 37.3843C154.782 37.0776 154.446 36.726 154.194 36.3296C153.949 35.9331 153.827 35.4731 153.827 34.9495C153.827 34.4334 153.926 33.9771 154.125 33.5806C154.323 33.1767 154.594 32.8289 154.938 32.5372C155.289 32.2454 155.698 32.0023 156.164 31.8079C156.629 31.6059 157.126 31.4488 157.653 31.3366C158.187 31.2169 158.741 31.1309 159.314 31.0785C159.886 31.0262 160.451 31 161.009 31C161.62 31 162.196 31.0262 162.739 31.0785C163.288 31.1309 163.815 31.202 164.319 31.2917C164.831 31.374 165.327 31.4712 165.808 31.5835C166.297 31.6957 166.79 31.8153 167.286 31.9425V33.5582Z" fill="#333333"/>
<path d="M188.568 46.6971V39.2244H174.468V46.6971H173.036V31.2805H174.468V37.9229H188.568V31.2805H190V46.6971H188.568Z" fill="#333333"/>
<path d="M18.2235 13.8368C17.8699 13.6616 17.403 13.4633 16.8227 13.242C16.2425 13.0207 15.5852 12.8133 14.8508 12.6196C14.1164 12.4168 13.3186 12.2508 12.4573 12.1217C11.596 11.9834 10.712 11.9142 9.80533 11.9142C9.08002 11.9142 8.45897 11.9373 7.94218 11.9834C7.43446 12.0295 7.00381 12.0894 6.65022 12.1632C6.3057 12.237 6.02917 12.3246 5.82064 12.426C5.62118 12.5182 5.46705 12.615 5.35825 12.7165C5.24946 12.8179 5.17693 12.9193 5.14066 13.0207C5.11346 13.1222 5.09986 13.2144 5.09986 13.2974C5.09986 13.574 5.23586 13.8183 5.50785 14.0304C5.77984 14.2333 6.15156 14.4177 6.62302 14.5837C7.09447 14.7404 7.64299 14.8926 8.26857 15.0401C8.89416 15.1784 9.55601 15.326 10.2541 15.4827C10.9613 15.6302 11.6866 15.7962 12.4301 15.9806C13.1826 16.1558 13.9079 16.3633 14.606 16.603C15.3132 16.8428 15.9796 17.124 16.6051 17.4467C17.2307 17.7603 17.7792 18.1291 18.2507 18.5533C18.7222 18.9774 19.0939 19.4661 19.3659 20.0194C19.6379 20.5726 19.7739 21.2042 19.7739 21.9142C19.7739 22.8271 19.6152 23.6109 19.2979 24.2656C18.9805 24.9202 18.5544 25.4735 18.0195 25.9253C17.4937 26.3771 16.8817 26.7414 16.1836 27.018C15.4854 27.2854 14.7511 27.4929 13.9804 27.6404C13.2188 27.7879 12.4437 27.8847 11.6549 27.9308C10.8752 27.9769 10.1317 28 9.42454 28C7.57499 28 5.86144 27.8432 4.28388 27.5297C2.71539 27.2254 1.32823 26.8428 0.122396 26.3817V21.8451C1.3645 22.5459 2.77886 23.0945 4.36548 23.491C5.96117 23.8875 7.66566 24.0858 9.47894 24.0858C10.5488 24.0858 11.4192 24.0304 12.0901 23.9198C12.7701 23.7999 13.3004 23.6524 13.6812 23.4772C14.062 23.2928 14.3204 23.0945 14.4564 22.8824C14.5924 22.6704 14.6604 22.4675 14.6604 22.2739C14.6604 21.9696 14.5244 21.7068 14.2524 21.4855C13.9804 21.255 13.6087 21.0567 13.1372 20.8907C12.6658 20.7155 12.1173 20.5588 11.4917 20.4205C10.8661 20.2729 10.1997 20.13 9.49254 19.9917C8.79443 19.8442 8.07365 19.6874 7.3302 19.5214C6.58675 19.3555 5.86144 19.1618 5.15426 18.9405C4.45614 18.71 3.7943 18.4472 3.16871 18.1521C2.54313 17.8479 1.99461 17.4929 1.52316 17.0871C1.0517 16.6722 0.679981 16.1973 0.407989 15.6625C0.135996 15.1185 0 14.4915 0 13.7815C0 12.9424 0.145063 12.2185 0.435188 11.61C0.725314 11.0014 1.11517 10.485 1.60476 10.0609C2.10341 9.62748 2.67459 9.27709 3.31831 9.00968C3.97109 8.74228 4.65561 8.53481 5.37185 8.38728C6.0881 8.23974 6.81341 8.13831 7.54779 8.08299C8.28217 8.02766 8.98029 8 9.64214 8C10.3674 8 11.1109 8.03688 11.8725 8.11065C12.6431 8.18442 13.4002 8.29046 14.1436 8.42877C14.8871 8.55786 15.6033 8.71 16.2924 8.8852C16.9905 9.0604 17.6342 9.24481 18.2235 9.43845V13.8368Z" fill="url(#paint0_linear)"/>
<path d="M45.1508 26.1881C44.498 26.4647 43.8407 26.7137 43.1788 26.935C42.517 27.1563 41.8325 27.3453 41.1253 27.5021C40.4181 27.6681 39.6701 27.7925 38.8813 27.8755C38.1016 27.9585 37.263 28 36.3654 28C34.4615 28 32.7071 27.7925 31.1023 27.3776C29.5067 26.9627 28.1286 26.3402 26.9681 25.5104C25.8166 24.6713 24.9191 23.6293 24.2753 22.3845C23.6316 21.1305 23.3098 19.669 23.3098 18C23.3098 16.331 23.6316 14.8741 24.2753 13.6293C24.9191 12.3753 25.8166 11.3333 26.9681 10.5035C28.1286 9.66436 29.5067 9.03734 31.1023 8.62241C32.7071 8.20747 34.4615 8 36.3654 8C37.263 8 38.1016 8.04149 38.8813 8.12448C39.6701 8.20747 40.4181 8.33195 41.1253 8.49793C41.8325 8.65468 42.517 8.84371 43.1788 9.06501C43.8407 9.28631 44.498 9.53527 45.1508 9.81189V14.4315C44.634 14.1457 44.09 13.8645 43.5188 13.5878C42.9476 13.302 42.3175 13.0484 41.6285 12.8271C40.9394 12.5966 40.1824 12.4122 39.3573 12.2739C38.5323 12.1263 37.603 12.0526 36.5694 12.0526C34.9828 12.0526 33.6636 12.2185 32.6119 12.5505C31.5693 12.8824 30.7352 13.325 30.1096 13.8783C29.484 14.4315 29.0443 15.0678 28.7904 15.787C28.5366 16.497 28.4096 17.2347 28.4096 18C28.4096 18.5071 28.464 19.0097 28.5728 19.5076C28.6816 19.9963 28.8629 20.462 29.1168 20.9046C29.3707 21.3379 29.7016 21.7391 30.1096 22.1079C30.5176 22.4767 31.0253 22.7948 31.6327 23.0622C32.2402 23.3296 32.9474 23.5417 33.7543 23.6985C34.5703 23.846 35.5086 23.9198 36.5694 23.9198C37.603 23.9198 38.5323 23.8552 39.3573 23.7261C40.1824 23.5878 40.9394 23.408 41.6285 23.1867C42.3175 22.9654 42.9476 22.7165 43.5188 22.4398C44.09 22.154 44.634 21.8635 45.1508 21.5685V26.1881Z" fill="url(#paint1_linear)"/>
<path d="M79.0364 18C79.0364 19.6321 78.7417 21.0752 78.1524 22.3292C77.5631 23.574 76.7199 24.616 75.6229 25.455C74.5258 26.2941 73.1931 26.9304 71.6246 27.3638C70.0651 27.7879 66.3108 28 64.3615 28C62.4122 28 58.6488 27.7879 57.0713 27.3638C55.5028 26.9304 54.1655 26.2941 53.0594 25.455C51.9533 24.616 51.101 23.574 50.5026 22.3292C49.9043 21.0752 49.6051 19.6321 49.6051 18C49.6051 16.3679 49.9043 14.9295 50.5026 13.6846C51.101 12.4306 51.9533 11.384 53.0594 10.545C54.1655 9.70586 55.5028 9.07423 57.0713 8.65007C58.6488 8.21669 61.4122 8 64.3615 8C66.3108 8 70.0651 8.21669 71.6246 8.65007C73.1931 9.07423 74.5258 9.70586 75.6229 10.545C76.7199 11.384 77.5631 12.4306 78.1524 13.6846C78.7417 14.9295 79.0364 16.3679 79.0364 18ZM73.9365 18C73.9365 17.29 73.8232 16.5846 73.5965 15.8838C73.3789 15.1738 72.9845 14.5376 72.4134 13.9751C71.8512 13.4126 71.0806 12.9562 70.1014 12.6058C69.1222 12.2554 65.8756 12.0802 64.3615 12.0802C62.3461 12.0802 60.453 12.1632 59.6824 12.3292C58.9117 12.4859 58.2454 12.7072 57.6832 12.9931C57.1211 13.2789 56.6497 13.6155 56.2689 14.0028C55.8881 14.3808 55.5844 14.7911 55.3577 15.2337C55.1311 15.6671 54.9679 16.1236 54.8681 16.603C54.7775 17.0733 54.7321 17.539 54.7321 18C54.7321 18.4703 54.7775 18.9451 54.8681 19.4246C54.9679 19.9041 55.1311 20.3651 55.3577 20.8077C55.5844 21.2411 55.8881 21.6468 56.2689 22.0249C56.6497 22.403 57.1211 22.7349 57.6832 23.0207C58.2454 23.2974 58.9117 23.5187 59.6824 23.6846C60.453 23.8414 63.3461 23.9198 64.3615 23.9198C65.8756 23.9198 69.1222 23.7446 70.1014 23.3942C71.0806 23.0438 71.8512 22.5874 72.4134 22.0249C72.9845 21.4624 73.3789 20.8308 73.5965 20.13C73.8232 19.42 73.9365 18.71 73.9365 18Z" fill="url(#paint2_linear)"/>
<path d="M116.313 18C116.313 19.6321 116.019 21.0752 115.429 22.3292C114.84 23.574 113.997 24.616 112.9 25.455C111.803 26.2941 110.47 26.9304 108.901 27.3638C107.342 27.7879 103.588 28 101.638 28C99.689 28 95.9256 27.7879 94.3481 27.3638C92.7796 26.9304 91.4423 26.2941 90.3362 25.455C89.2301 24.616 88.3778 23.574 87.7795 22.3292C87.1811 21.0752 86.8819 19.6321 86.8819 18C86.8819 16.3679 87.1811 14.9295 87.7795 13.6846C88.3778 12.4306 89.2301 11.384 90.3362 10.545C91.4423 9.70586 92.7796 9.07423 94.3481 8.65007C95.9256 8.21669 99.689 8 101.638 8C103.588 8 107.342 8.21669 108.901 8.65007C110.47 9.07423 111.803 9.70586 112.9 10.545C113.997 11.384 114.84 12.4306 115.429 13.6846C116.019 14.9295 116.313 16.3679 116.313 18ZM111.213 18C111.213 17.29 111.1 16.5846 110.873 15.8838C110.656 15.1738 110.261 14.5376 109.69 13.9751C109.128 13.4126 108.357 12.9562 107.378 12.6058C106.399 12.2554 103.152 12.0802 101.638 12.0802C100.623 12.0802 97.7299 12.1632 96.9592 12.3292C96.1886 12.4859 95.5222 12.7072 94.9601 12.9931C94.3979 13.2789 93.9265 13.6155 93.5457 14.0028C93.1649 14.3808 92.8612 14.7911 92.6345 15.2337C92.4079 15.6671 92.2447 16.1236 92.1449 16.603C92.0543 17.0733 92.0089 17.539 92.0089 18C92.0089 18.4703 92.0543 18.9451 92.1449 19.4246C92.2447 19.9041 92.4079 20.3651 92.6345 20.8077C92.8612 21.2411 93.1649 21.6468 93.5457 22.0249C93.9265 22.403 94.3979 22.7349 94.9601 23.0207C95.5222 23.2974 96.1886 23.5187 96.9592 23.6846C97.7299 23.8414 100.623 23.9198 101.638 23.9198C103.152 23.9198 106.399 23.7446 107.378 23.3942C108.357 23.0438 109.128 22.5874 109.69 22.0249C110.261 21.4624 110.656 20.8308 110.873 20.13C111.1 19.42 111.213 18.71 111.213 18Z" fill="url(#paint3_linear)"/>
<path d="M132.11 12.6196V27.4882H127.064V12.6196H119.136V8.48409H140.052V12.6196H132.11Z" fill="url(#paint4_linear)"/>
<path d="M143.397 27.4882V8.48409H162.314V12.5367H148.579V15.6763H161.607V19.7289H148.579V23.4357H162.505V27.4882H143.397Z" fill="url(#paint5_linear)"/>
<path d="M172.432 27.4882H167.387V8.48409H180.035C181.395 8.48409 182.546 8.62702 183.489 8.91286C184.441 9.19871 185.212 9.60443 185.801 10.13C186.399 10.6556 186.83 11.2918 187.093 12.0387C187.365 12.7764 187.501 13.6017 187.501 14.5145C187.501 15.3167 187.388 16.0175 187.161 16.6169C186.943 17.2162 186.644 17.7326 186.263 18.166C185.892 18.5901 185.456 18.9497 184.958 19.2448C184.459 19.5399 183.933 19.7842 183.38 19.9779L189.5 27.4882H183.598L177.94 20.4896H172.432V27.4882ZM182.401 14.4869C182.401 14.118 182.351 13.8045 182.251 13.5463C182.161 13.2882 181.998 13.0807 181.762 12.9239C181.526 12.758 181.209 12.6381 180.81 12.5643C180.42 12.4905 179.93 12.4537 179.341 12.4537H172.432V16.5201H179.341C179.93 16.5201 180.42 16.4832 180.81 16.4094C181.209 16.3356 181.526 16.2204 181.762 16.0636C181.998 15.8976 182.161 15.6856 182.251 15.4274C182.351 15.1692 182.401 14.8557 182.401 14.4869Z" fill="url(#paint6_linear)"/>
<path d="M85.5 18C85.5 17.6736 85.4421 17.385 85.3262 17.1342C85.2103 16.8852 85.0446 16.6768 84.8289 16.509C84.6132 16.3412 84.3512 16.2139 84.0428 16.1272C83.7362 16.0424 83.3913 16 83.008 16C82.6248 16 82.2781 16.0424 81.9679 16.1272C81.6595 16.2139 81.3966 16.3412 81.1791 16.509C80.9617 16.6768 80.7941 16.8852 80.6765 17.1342C80.5588 17.385 80.5 17.6736 80.5 18C80.5 18.3264 80.5588 18.6141 80.6765 18.8631C80.7941 19.1139 80.9617 19.3232 81.1791 19.491C81.3966 19.6588 81.6595 19.7852 81.9679 19.87C82.2781 19.9567 82.6248 20 83.008 20C83.3913 20 83.7362 19.9567 84.0428 19.87C84.3512 19.7852 84.6132 19.6588 84.8289 19.491C85.0446 19.3232 85.2103 19.1139 85.3262 18.8631C85.4421 18.6141 85.5 18.3264 85.5 18Z" fill="url(#paint7_linear)"/>
<rect y="45" width="90" height="2" rx="1" fill="#C4C4C4"/>
<rect y="45" width="90" height="2" rx="1" fill="url(#paint8_linear)"/>
<rect x="50" y="41" width="45" height="2" rx="1" fill="#C4C4C4"/>
<rect x="50" y="41" width="45" height="2" rx="1" fill="url(#paint9_linear)"/>
<rect x="77" y="37" width="23" height="2" rx="1" fill="#C4C4C4"/>
<rect x="77" y="37" width="23" height="2" rx="1" fill="url(#paint10_linear)"/>
<defs>
<linearGradient id="paint0_linear" x1="-5.49334e-06" y1="18" x2="8.3016" y2="56.7845" gradientUnits="userSpaceOnUse">
<stop offset="0.000853242" stop-color="#0166DC"/>
<stop offset="1" stop-color="#22499C"/>
</linearGradient>
<linearGradient id="paint1_linear" x1="-5.49334e-06" y1="18" x2="8.3016" y2="56.7845" gradientUnits="userSpaceOnUse">
<stop offset="0.000853242" stop-color="#0166DC"/>
<stop offset="1" stop-color="#22499C"/>
</linearGradient>
<linearGradient id="paint2_linear" x1="-5.49334e-06" y1="18" x2="8.3016" y2="56.7845" gradientUnits="userSpaceOnUse">
<stop offset="0.000853242" stop-color="#0166DC"/>
<stop offset="1" stop-color="#22499C"/>
</linearGradient>
<linearGradient id="paint3_linear" x1="-5.49334e-06" y1="18" x2="8.3016" y2="56.7845" gradientUnits="userSpaceOnUse">
<stop offset="0.000853242" stop-color="#0166DC"/>
<stop offset="1" stop-color="#22499C"/>
</linearGradient>
<linearGradient id="paint4_linear" x1="-5.49334e-06" y1="18" x2="8.3016" y2="56.7845" gradientUnits="userSpaceOnUse">
<stop offset="0.000853242" stop-color="#0166DC"/>
<stop offset="1" stop-color="#22499C"/>
</linearGradient>
<linearGradient id="paint5_linear" x1="-5.49334e-06" y1="18" x2="8.3016" y2="56.7845" gradientUnits="userSpaceOnUse">
<stop offset="0.000853242" stop-color="#0166DC"/>
<stop offset="1" stop-color="#22499C"/>
</linearGradient>
<linearGradient id="paint6_linear" x1="-5.49334e-06" y1="18" x2="8.3016" y2="56.7845" gradientUnits="userSpaceOnUse">
<stop offset="0.000853242" stop-color="#0166DC"/>
<stop offset="1" stop-color="#22499C"/>
</linearGradient>
<linearGradient id="paint7_linear" x1="80.5" y1="18" x2="84.1235" y2="15.7667" gradientUnits="userSpaceOnUse">
<stop offset="0.000853242" stop-color="#0166DC"/>
<stop offset="1" stop-color="#22499C"/>
</linearGradient>
<linearGradient id="paint8_linear" x1="0" y1="46.9999" x2="90.5" y2="46.9999" gradientUnits="userSpaceOnUse">
<stop stop-color="white"/>
<stop offset="1" stop-color="white" stop-opacity="0"/>
</linearGradient>
<linearGradient id="paint9_linear" x1="50" y1="43" x2="95" y2="43" gradientUnits="userSpaceOnUse">
<stop stop-color="white"/>
<stop offset="1" stop-color="white" stop-opacity="0"/>
</linearGradient>
<linearGradient id="paint10_linear" x1="77" y1="37" x2="100" y2="37" gradientUnits="userSpaceOnUse">
<stop stop-color="white"/>
<stop offset="1" stop-color="white" stop-opacity="0"/>
</linearGradient>
</defs>
</svg>
